<?xml version="1.0" standalone="no"?>
<!DOCTYPE svg PUBLIC "-//W3C//DTD SVG 1.0//EN" "http://www.w3.org/TR/2001/REC-SVG-20010904/DTD/svg10.dtd">
<svg xmlns="http://www.w3.org/2000/svg" xmlns:xlink="http://www.w3.org/1999/xlink" id="body_1" width="61" height="46">

<g transform="matrix(0.09484537 0 0 0.09484537 7.4999995 -0)">
	<g>
		<g>
            <path d="M152.5 447.5L172.5 447.5L312.5 447.5L332.5 447.5C 338 447.5 342.5 452 342.5 457.5L342.5 457.5L342.5 467.5L342.5 477.5L142.5 477.5L142.5 467.5L142.5 457.5C 142.5 452 147 447.5 152.5 447.5z" stroke="none" fill="#AFB6BB" fill-rule="nonzero" />
            <path d="M172.5 377.5L312.5 377.5L312.5 447.5L172.5 447.5z" stroke="none" fill="#E7ECED" fill-rule="nonzero" />
            <path d="M477.5 17.5L477.5 287.5L7.5 287.5L7.5 17.5C 7.5 12 12 7.5 17.5 7.5L17.5 7.5L467.5 7.5C 473 7.5 477.5 12 477.5 17.5z" stroke="none" fill="#31C0D8" fill-rule="nonzero" />
            <path d="M477.5 287.5L477.5 367.5C 477.5 373 473 377.5 467.5 377.5L467.5 377.5L312.5 377.5L172.5 377.5L17.5 377.5C 12 377.5 7.5 373 7.5 367.5L7.5 367.5L7.5 287.5L477.5 287.5z" stroke="none" fill="#AFB6BB" fill-rule="nonzero" />
		</g>
		<g>
			<g>
                <path d="M242.5 312.5C 253.5 312.5 262.5 321.5 262.5 332.5C 262.5 343.5 253.5 352.5 242.5 352.5C 231.5 352.5 222.5 343.5 222.5 332.5C 222.5 321.5 231.5 312.5 242.5 312.5z" stroke="none" fill="#E7ECED" fill-rule="nonzero" />
			</g>
			<g>
                <path d="M467.5 0L17.5 0C 7.851 0 0 7.851 0 17.5L0 17.5L0 367.5C 0 377.149 7.851 385 17.5 385L17.5 385L165 385L165 440L152.5 440C 142.851 440 135 447.851 135 457.5L135 457.5L135 485L350 485L350 457.5C 350 447.851 342.149 440 332.5 440L332.5 440L320 440L320 385L467.5 385C 477.149 385 485 377.149 485 367.5L485 367.5L485 17.5C 485 7.851 477.149 0 467.5 0zM17.5 15L467.5 15C 468.855 15 470 16.145 470 17.5L470 17.5L470 280L15 280L15 17.5C 15 16.145 16.145 15 17.5 15zM335 457.5L335 470L150 470L150 457.5C 150 456.145 151.145 455 152.5 455L152.5 455L332.5 455C 333.855 455 335 456.145 335 457.5zM180 440L180 385L305 385L305 440L180 440zM467.5 370L17.5 370C 16.145 370 15 368.855 15 367.5L15 367.5L15 295L470 295L470 367.5C 470 368.855 468.855 370 467.5 370z" stroke="none" fill="#231F20" fill-rule="nonzero" />
                <path d="M242.5 305C 227.337 305 215 317.336 215 332.5C 215 347.664 227.337 360 242.5 360C 257.663 360 270 347.664 270 332.5C 270 317.336 257.663 305 242.5 305zM242.5 345C 235.607 345 230 339.393 230 332.5C 230 325.607 235.607 320 242.5 320C 249.393 320 255 325.607 255 332.5C 255 339.393 249.393 345 242.5 345z" stroke="none" fill="#231F20" fill-rule="nonzero" />
			</g>
		</g>
	</g>
	<g>
	</g>
	<g>
	</g>
	<g>
	</g>
	<g>
	</g>
	<g>
	</g>
	<g>
	</g>
	<g>
	</g>
	<g>
	</g>
	<g>
	</g>
	<g>
	</g>
	<g>
	</g>
	<g>
	</g>
	<g>
	</g>
	<g>
	</g>
	<g>
	</g>
</g>
</svg>